<svg width="86" height="90" viewBox="0 0 86 90" fill="none" xmlns="http://www.w3.org/2000/svg">
<path d="M59.2536 11.25C60.8995 11.25 62.5454 10.4167 62.9569 10.4167L65.8373 8.75C66.2488 8.75 66.6603 8.33333 67.0717 8.33333L56.7847 3.33333C56.7847 3.75 56.3732 4.16667 56.3732 4.16667C56.3732 5 56.3732 5.41667 56.3732 5.41667V7.91667C56.3732 9.16667 56.7847 10 57.1961 10.4167C57.6076 10.8333 58.0191 11.25 59.2536 11.25ZM42.7942 39.5833V43.3333C43.2057 45 46.0861 45.4167 47.732 45L48.555 44.5833L49.378 44.1667C50.6124 43.3333 53.9043 40.4167 53.9043 34.5833V32.0833C53.9043 32.0833 53.9043 29.5833 55.5502 27.0833C55.9617 26.6667 55.9617 26.25 56.3732 25.8333C56.7847 27.9167 57.6076 29.5833 59.6651 31.25C61.311 32.9167 63.3684 33.75 63.3684 33.75L66.6603 35.4167C69.5407 36.6667 71.1866 36.6667 72.421 35.8333C73.244 35 73.244 33.75 73.244 33.75V30.4167C73.244 27.9167 72.0095 25.8333 69.9521 24.1667C68.3062 22.5 66.2488 21.6667 66.2488 21.6667L63.7799 20.4167L65.0143 20L76.9473 14.5833C76.9473 14.5833 76.9473 14.5833 77.3588 14.5833C77.7703 14.5833 77.7703 14.1667 78.1818 14.1667C79.4162 14.5833 80.2392 15.4167 81.0622 16.25C82.2966 16.6667 83.1196 17.5 83.9426 18.75C84.354 19.1667 84.354 19.5833 84.7655 20C84.7655 20.4167 85.177 20.4167 85.177 20.8333C85.5885 21.6667 85.5885 22.0833 86 22.9167C86 23.3333 86 23.3333 86 23.75V46.25C86 46.6667 86 46.6667 86 47.0833C86 47.5 85.5885 47.9167 85.177 48.3333C85.177 48.3333 85.177 48.75 84.7655 48.75C82.2966 51.25 76.9473 48.75 76.5359 48.75L62.5454 41.6667C59.665 40.4167 57.6076 40 55.9617 40.8333C54.3158 41.6667 54.3158 44.1667 54.3158 44.1667V46.6667C54.3158 49.1667 53.4928 50.8333 52.6698 51.6667C51.4354 52.5 50.2009 52.5 49.378 52.0833L47.732 51.25C45.6746 49.5833 44.4402 47.5 44.0287 45.4167C43.6172 44.1667 43.2057 42.5 43.2057 41.25V5C43.2057 3.33333 43.6172 2.5 44.4402 1.66667C44.8517 1.25 45.2631 0.833333 46.0861 0.416667C46.4976 0 47.3206 0 48.555 0C49.7895 0 50.6124 0.416667 51.4354 0.833333L52.6698 1.25L55.5502 2.5C55.5502 2.91667 55.1387 3.33333 55.1387 3.33333C54.7272 4.58333 54.7273 5 54.7273 5V7.5C54.7273 8.75 55.1387 10 55.9617 10.8333C56.7847 11.25 57.6076 11.6667 58.8421 11.6667C60.488 11.6667 62.5454 10.8333 62.9569 10.4167L66.2488 8.75C66.6603 8.75 66.6603 8.33333 67.0717 8.33333C67.4832 8.33333 67.8947 7.91667 68.3062 7.91667L77.3588 12.0833H77.7703C77.3588 12.5 76.9473 12.5 76.9473 12.5H76.5359L64.6028 18.3333L63.3684 18.75C60.8995 17.5 59.2536 17.5 58.0191 18.75C57.1962 19.5833 57.1961 20.8333 57.1961 20.8333V22.9167C56.7847 23.3333 56.3732 23.75 56.3732 24.1667C53.4928 28.75 53.4928 31.6667 53.4928 32.0833V34.5833C53.4928 40 50.6124 42.5 49.378 43.75L48.555 44.1667L47.732 44.5833C46.4976 45 44.4402 44.5833 43.6172 43.3333C42.7942 41.6667 42.7942 40.8333 42.7942 39.5833Z" fill="#010202"/>
<path d="M16.0478 34.1667C17.6938 34.1667 19.3397 33.3333 19.7512 33.3333L23.0431 31.6667C23.4545 31.6667 23.866 31.25 24.2775 31.25L13.5789 26.25C13.5789 26.6667 13.1675 27.0833 13.1675 27.0833C13.1675 27.9167 13.1675 28.3333 13.1675 28.3333V30.8333C13.1675 32.0833 13.5789 32.9167 13.9904 33.3333C14.4019 34.1667 15.2249 34.1667 16.0478 34.1667ZM0 62.9167V66.6667C0.411483 68.3333 3.29187 68.75 4.9378 68.3333L5.76077 67.9167L6.58373 67.5C7.81818 66.6667 11.11 63.75 11.11 57.9167V55.4167C11.11 55.4167 11.11 52.9167 12.756 50.4167C13.1675 50 13.1675 49.5833 13.5789 49.1667C13.9904 51.25 14.8134 52.9167 16.8708 54.5833C18.5167 56.25 20.5742 57.0833 20.5742 57.0833L24.2775 58.3333C27.1579 59.5833 28.8038 59.5833 30.0383 58.75C30.8612 57.9167 30.8612 56.6667 30.8612 56.6667V54.1667C30.8612 51.6667 29.6268 49.5833 27.5694 47.9167C25.9234 46.25 23.866 45.4167 23.866 45.4167L21.3971 44.1667L22.6316 43.75L34.1531 37.5C34.1531 37.5 34.1531 37.5 34.5646 37.5C34.9761 37.5 34.9761 37.0833 35.3876 37.0833C36.622 37.5 37.445 38.3333 38.2679 39.1667C39.5024 40 40.3254 41.25 41.1483 42.5C41.5598 42.9167 41.5598 43.3333 41.9713 43.75C41.9713 44.1667 42.3828 44.1667 42.3828 44.5833C42.7943 45.4167 42.7943 45.8333 43.2057 46.6667C43.2057 47.0833 43.2057 47.0833 43.2057 47.5V70C43.2057 70.4167 43.2057 70.4167 43.2057 70.8333C43.2057 71.25 42.7943 71.6667 42.3828 72.0833C42.3828 72.0833 42.3828 72.5 41.9713 72.5C39.5024 75 34.1531 72.5 33.7416 72.5L20.1627 65.8333C17.2823 64.5833 15.2249 64.1667 13.5789 65C11.933 65.8333 11.933 68.3333 11.933 68.3333V70.8333C11.933 73.3333 11.11 75 10.2871 75.8333C9.05263 76.6667 7.81818 76.6667 6.99522 76.25L4.52632 75C2.4689 73.3333 1.23445 71.25 0.822967 69.1667C0.411483 67.9167 0 66.25 0 65V27.9167C0 26.25 0.411483 25.4167 1.23445 24.5833C1.64593 24.1667 2.05742 23.75 2.88038 23.3333C3.70335 22.9167 4.52632 22.9167 5.76077 23.3333C6.99521 23.3333 7.81818 23.75 8.64115 24.1667L9.8756 24.5833L12.756 25.8333C12.756 26.25 12.3445 26.6667 12.3445 26.6667C12.3445 27.9167 12.3445 28.75 12.3445 28.75V31.25C12.3445 32.5 12.756 33.75 13.5789 34.5833C14.4019 35 15.2249 35.4167 16.4593 35.4167C18.1053 35.4167 20.1627 34.5833 20.5742 34.1667L23.866 32.5C24.2775 32.5 24.2775 32.0833 24.689 32.0833C25.1005 32.0833 25.512 31.6667 25.9234 31.6667L34.9761 35.8333H35.3876C33.7416 36.25 33.7416 36.6667 33.7416 36.6667H33.3301L21.3971 42.5L20.1627 42.9167C17.6938 41.6667 16.0478 41.6667 14.8134 42.9167C13.9904 43.75 13.9904 45 13.9904 45V47.0833C13.5789 47.5 13.1675 47.9167 13.1675 48.3333C10.6986 51.6667 10.6986 54.5833 10.6986 54.5833V57.0833C10.6986 62.5 7.81818 65 6.58373 66.25L5.76077 66.6667L4.9378 67.0833C3.70335 67.5 1.64593 67.0833 0.822967 65.8333C0 65 0 64.1667 0 62.9167Z" fill="#EF7D19"/>
<path d="M10.6986 20.8333C10.2871 20.8333 10.2871 21.25 9.87562 21.25C9.87562 21.25 9.46413 21.25 9.46413 21.6667C8.22968 22.0833 7.40671 22.0833 5.76078 21.25C4.52633 20.8333 2.8804 20.4167 2.05743 20.8333C2.05743 20.8333 2.05743 20.8333 1.64595 21.25C1.64595 21.25 1.23447 21.6667 1.23447 22.0833V23.3333C1.23447 23.75 1.23447 23.75 1.64595 24.1667C3.29188 25 5.3493 24.5833 8.64116 22.9167L9.46413 22.5L20.9857 17.0833C20.9857 16.6667 20.9857 16.25 20.9857 16.25C20.5742 14.1667 19.7512 11.6667 18.1053 10C17.6938 9.58333 17.2823 9.58333 17.2823 9.16667L11.933 11.6667C11.933 12.0833 11.933 12.5 11.933 12.9167V13.3333V15.8333C11.933 16.25 11.933 19.1667 10.6986 20.8333ZM22.2201 15.4167C21.8086 13.75 20.5742 11.25 18.9282 9.58333C18.5168 9.16667 18.5168 9.16667 18.1053 8.75L21.3971 7.08333C21.3971 7.5 21.3971 7.5 21.8086 7.91667C22.2201 9.58333 23.866 11.6667 26.7464 13.3333C26.7464 13.3333 26.7464 13.3333 27.1579 13.3333C27.5694 13.3333 27.9809 13.75 28.3924 13.75C26.7464 14.5833 25.1005 15.4167 24.2775 15.4167L23.4546 15.8333L22.2201 16.6667C22.2201 16.25 22.2201 15.8333 22.2201 15.4167ZM0.411499 21.6667V22.9167V21.6667C0.411499 19.1667 2.8804 15.8333 5.76078 14.5833L10.6986 12.0833C10.6986 12.5 10.6986 12.9167 10.6986 13.3333V15.8333C10.6986 15.8333 10.6986 18.3333 9.46413 20C9.05265 20.8333 7.8182 21.25 6.58375 20.4167C4.93782 19.5833 3.29188 19.1667 2.05743 20C2.05743 20 1.64595 20 1.64595 20.4167L1.23447 20.8333C0.822982 20.8333 0.411499 21.25 0.411499 21.6667ZM27.1579 12.9167C27.5694 12.9167 27.5694 13.3333 27.9809 13.3333C29.2153 13.75 30.4498 13.75 31.2727 13.3333C31.6842 12.9167 31.6842 12.5 31.6842 11.6667C31.6842 10.4167 30.8613 7.5 27.1579 5.41667C27.1579 5.41667 26.7464 5.41667 26.7464 5C26.7464 5 26.3349 5 25.9235 4.58333L22.2201 6.66667C22.2201 7.08333 22.2201 7.5 22.2201 7.5C23.0431 9.58333 24.2775 11.6667 27.1579 12.9167ZM32.9187 11.6667C32.9187 10 32.0957 7.08333 28.3924 5L31.6842 3.33333C32.0957 5.41667 33.3302 8.33333 37.0335 10C37.445 10 39.0909 10.8333 40.7369 10C41.1483 9.58333 41.5598 9.58333 41.9713 9.16667C42.3828 8.33333 42.7943 7.5 43.2058 6.25V5.83333V5.41667V7.91667V8.75V9.58333C42.7943 15.8333 38.268 18.3333 37.8565 18.3333C35.7991 18.75 34.1531 18.75 33.3302 18.3333C32.0957 17.9167 31.6842 16.6667 31.6842 15.4167C31.6842 15 31.6842 14.5833 31.2727 14.1667C31.6842 14.1667 31.6842 13.75 32.0957 13.75C32.5072 13.3333 32.9187 12.5 32.9187 11.6667ZM32.9187 2.91667C32.9187 4.58333 34.1531 7.5 37.8565 9.16667C37.8565 9.16667 39.5024 10 40.7369 9.16667C41.5598 8.75 41.9713 7.5 42.3828 5.83333V5.41667V5V2.5V2.08333C41.5598 0.833333 40.7369 0 39.0909 0C38.6794 0 38.268 0 37.8565 0C37.445 0 36.622 0 36.2105 0.416667L32.5072 2.08333C32.5072 2.08333 32.9187 2.5 32.9187 2.91667ZM31.6842 3.33333L28.3924 5C27.9809 5 27.5694 4.58333 27.1579 4.58333L31.2727 2.5V2.91667C31.6842 2.91667 31.6842 3.33333 31.6842 3.33333ZM28.8038 30.8333C30.0383 30 31.6842 28.75 32.5072 27.0833C32.5072 25.8333 32.9187 25 32.9187 24.1667C32.9187 22.9167 32.5072 22.0833 31.6842 21.6667C30.4498 20.8333 28.8038 21.25 26.7464 22.0833C25.512 22.5 24.2775 23.3333 23.0431 24.5833C23.0431 25 23.4546 25.4167 23.4546 25.4167C24.689 27.5 26.3349 29.1667 27.9809 30C27.9809 30.4167 28.3924 30.4167 28.8038 30.8333ZM27.1579 31.25C25.512 32.5 23.866 32.5 22.6316 31.6667C21.8086 31.25 21.3971 30.4167 21.3971 29.1667C21.3971 28.3333 21.3971 27.5 21.8086 26.6667C21.8086 26.25 22.2201 25.8333 22.2201 25.8333C22.2201 26.25 22.6316 26.6667 22.6316 26.6667C23.866 28.3333 25.1005 29.5833 26.3349 30.8333C27.1579 30.8333 27.5694 30.8333 27.1579 31.25C27.5694 31.25 27.5694 31.25 27.1579 31.25ZM37.0335 43.3333C37.8565 43.75 38.268 43.75 39.0909 43.75C39.9139 43.75 40.7369 43.75 41.5598 43.75C41.9713 43.75 41.9713 43.3333 42.3828 43.3333C42.3828 43.3333 42.3828 43.3333 42.3828 42.9167C40.7369 42.5 39.0909 42.5 37.0335 43.3333ZM20.1627 35.4167L19.3397 35C18.5168 35 18.1053 35 17.2823 35C16.8708 35.4167 16.8708 35.4167 16.4593 35.4167C16.4593 35.4167 15.2249 35.8333 14.4019 37.0833L15.2249 37.5L21.3971 40.4167L22.2201 40.8333C22.2201 39.5833 22.2201 38.3333 21.3971 37.0833C21.3971 36.6667 20.9857 35.8333 20.1627 35.4167ZM33.3302 47.5C35.3876 48.3333 36.622 49.5833 37.8565 50.8333C38.268 51.25 38.268 51.25 38.6794 51.6667C37.0335 52.5 35.3876 53.3333 34.1531 54.1667L30.8613 55.8333C30.4498 55.4167 30.4498 55.4167 30.0383 55C27.5694 52.5 23.4546 50.4167 23.0431 50.4167L19.7512 48.75C14.8134 46.6667 12.3445 46.6667 11.5215 47.5C11.1101 47.5 11.1101 47.9167 10.6986 47.9167C10.6986 48.3333 10.2871 48.3333 10.2871 48.75V45.8333C10.2871 43.75 10.6986 42.0833 11.5215 40.4167C12.3445 39.5833 13.1675 38.75 13.579 37.9167L14.4019 38.3333L21.3971 41.6667L22.2201 42.0833V43.3333C22.2201 45 22.6316 46.25 23.866 46.6667C25.9235 47.9167 30.0383 46.25 30.4498 45.8333L31.6842 46.25L33.3302 47.5ZM16.4593 56.6667C14.8134 55.8333 13.1675 55.8333 12.3445 56.6667C11.933 57.0833 11.933 57.5 11.933 58.3333C11.933 59.5833 12.3445 61.25 13.9904 62.9167C14.4019 63.3333 14.4019 63.3333 14.8134 63.75L20.5742 60.4167C20.5742 60 20.1627 60 20.1627 59.5833C19.3397 58.75 18.1053 57.5 16.4593 56.6667ZM42.7943 43.75C43.2058 44.1667 43.2058 45 43.2058 45C43.2058 45.4167 43.2058 46.25 42.7943 46.6667C42.3828 47.9167 41.1483 49.1667 39.5024 50.4167L39.0909 50C37.8565 48.75 36.2105 47.5 34.1531 46.6667L32.9187 46.25L31.6842 45.8333L33.7416 45C34.5646 44.5833 34.9761 44.5833 35.7991 44.1667C36.2105 44.1667 36.622 44.5833 37.445 44.5833C39.0909 45 41.1483 45.4167 42.3828 45C42.3828 44.5833 42.7943 44.1667 42.7943 43.75C42.7943 44.1667 42.7943 44.1667 42.7943 43.75ZM23.0431 51.25L19.7512 49.5833C13.9904 47.0833 12.3445 47.9167 11.933 48.3333C11.933 48.3333 11.933 48.3333 11.933 48.75C11.933 49.1667 11.933 49.1667 11.933 49.1667C11.933 50 11.933 50.8333 11.5215 51.25C11.1101 51.6667 11.1101 51.6667 10.6986 52.0833C10.6986 52.5 10.2871 53.3333 9.87562 54.1667C9.05265 56.25 7.8182 57.5 6.17227 58.3333C4.52633 59.1667 2.8804 60.4167 1.64595 62.5C1.64595 62.9167 1.23447 62.9167 1.23447 63.3333C1.23447 63.75 0.822982 64.1667 0.822982 64.5833V65.8333C0.822982 66.25 1.23447 66.6667 1.64595 67.0833C3.29188 68.3333 6.17227 67.9167 10.2871 65.8333L14.4019 63.75C13.9904 63.3333 13.9904 63.3333 13.579 62.9167C11.933 61.25 11.1101 59.1667 11.1101 57.9167C11.1101 57.0833 11.5215 56.25 11.933 55.8333C13.1675 54.5833 15.6364 55 17.2823 55.8333C19.3397 56.6667 20.5742 57.9167 21.3971 59.1667C21.3971 59.5833 21.8086 59.5833 21.8086 60L30.4498 55.8333C30.0383 55.4167 30.0383 55.4167 29.6268 55C26.7464 52.9167 23.0431 51.25 23.0431 51.25Z" fill="#D80C39"/>
<path d="M77.7703 65.4167C78.5933 65.8333 79.4163 65.8333 80.6507 66.25C81.8852 66.25 83.1196 66.25 83.9426 65.8333C85.177 65 86 62.5 86 61.25C86 61.25 86.4115 59.5833 85.5885 58.3333C84.3541 56.6667 82.2967 56.25 80.2392 57.0833C77.7703 58.3333 74.89 60.8333 74.89 63.75C75.3015 63.75 75.7129 64.1667 75.7129 64.1667C76.5359 64.5833 77.3589 65 77.7703 65.4167ZM86 63.3333V66.25C85.5885 69.1667 83.9426 71.6667 81.8852 73.3333C81.4737 73.75 81.0622 74.1667 80.6507 74.1667C79.8278 75 79.0048 75.4167 78.1818 75.8333H77.7703L51.0239 88.3333H50.6124C49.7895 88.75 48.555 88.75 47.7321 89.1667C47.3206 89.1667 46.9091 89.1667 46.4976 89.1667C46.0861 89.1667 46.0861 89.1667 45.6746 89.1667H45.2632C44.4402 88.75 43.6172 87.9167 43.2057 87.5C42.3828 86.25 42.3828 84.5833 42.3828 84.5833V82.0833C42.3828 81.25 42.3828 80 42.7943 79.1667V78.75C42.7943 78.3333 43.2057 77.9167 43.2057 77.5V77.0833C44.8517 73.3333 47.7321 71.6667 47.7321 71.6667C50.6124 70 52.2584 70.8333 53.0813 71.6667C53.4928 72.5 53.9043 73.3333 53.9043 73.75C53.9043 74.1667 53.9043 74.5833 54.3158 74.5833C55.1388 75.8333 59.6651 74.5833 62.134 73.3333L65.4258 71.6667C72.0096 68.3333 73.6555 65.4167 74.067 64.1667L74.89 64.5833L76.9474 65.4167H77.3589C78.1818 65.8333 79.0048 65.8333 79.8278 65.8333C81.4737 66.25 82.7081 65.8333 83.9426 65C84.3541 65 84.3541 64.5833 84.3541 64.5833C85.5885 65 86 64.1667 86 63.3333ZM66.2488 38.3333C67.4833 37.9167 69.1292 37.0833 70.7751 36.6667C70.3637 36.6667 69.9522 36.25 69.9522 36.25H69.5407C68.3062 35.8333 66.6603 35.4167 65.8373 36.25C65.4258 36.6667 65.4258 37.0833 65.4258 37.9167C65.4258 38.3333 65.4258 38.75 65.4258 38.75L66.2488 38.3333ZM75.3014 25.4167C75.3014 27.0833 76.5359 30 80.2392 31.6667C80.2392 31.6667 82.7081 32.9167 83.9426 31.25C84.7656 30.4167 84.7656 29.1667 84.7656 27.5V24.5833C84.7656 24.5833 84.7656 24.5833 84.7656 24.1667C84.3541 23.75 83.9426 23.3333 83.5311 22.9167C81.8852 22.0833 79.4163 22.0833 76.1244 23.75L75.3014 24.1667C75.3014 24.5833 75.3014 25 75.3014 25.4167C75.3014 25 75.3014 25.4167 75.3014 25.4167ZM53.9043 39.1667C53.4928 38.3333 53.0813 37.5 51.8469 36.25C51.4354 35.8333 51.4354 35.8333 51.0239 35.4167C51.4354 35.4167 51.4354 35 51.8469 35L59.6651 31.25L60.8995 30.4167C61.7225 30.4167 62.9569 30.4167 63.3684 30C63.3684 29.5833 63.7799 29.5833 63.7799 29.1667H65.0144L74.4785 24.5833V25C74.4785 25 74.4785 25.4167 74.4785 25.8333C74.89 27.5 76.1244 30.4167 79.8278 32.5C79.8278 32.5 82.7081 33.75 84.7656 31.6667C85.5885 30.8333 86 29.1667 86 27.5V30C86 32.0833 85.5885 33.75 84.7656 35.4167C83.1196 38.75 80.6507 40.4167 80.2392 40.4167C78.1818 41.25 76.9474 41.6667 75.7129 40.8333C74.89 40.4167 74.4785 39.1667 74.4785 37.9167C74.4785 37.5 74.4785 37.0833 74.067 36.6667C73.6555 36.25 72.8326 36.25 72.4211 36.25C72.0096 35.8333 71.5981 35.8333 71.1866 35.4167C70.7751 35.4167 70.7751 35 70.3636 35C68.7177 34.1667 66.2488 33.75 65.0144 35C64.6029 35.4167 64.1914 36.25 64.1914 37.0833V37.5C64.1914 37.9167 64.1914 38.3333 64.6029 38.3333L63.3684 39.1667C59.6651 40.8333 57.6077 42.5 56.3732 44.1667C55.9617 43.75 55.9617 43.75 55.5502 43.3333C55.1388 42.9167 55.1388 42.5 55.1388 42.5C54.7273 42.0833 54.7273 41.6667 54.7273 41.25C54.3158 40.8333 54.3158 40 53.9043 39.1667ZM44.0287 54.1667C45.2632 55.8333 46.9091 56.25 48.9665 55C49.7895 54.5833 50.6124 54.1667 51.4354 53.3333L51.0239 52.9167H50.6124C49.7895 52.5 48.9665 51.6667 48.1435 51.25C46.4976 49.5833 44.8517 47.9167 44.0287 45.8333V45.4167C44.0287 45 43.6172 44.5833 43.6172 44.1667C43.2057 45 43.2057 45.4167 43.2057 46.25V51.25C42.7943 52.5 43.2057 53.3333 44.0287 54.1667C43.6172 54.1667 43.6172 54.1667 44.0287 54.1667ZM44.8517 45.4167C45.6746 47.5 46.9091 49.1667 48.555 50.8333C49.378 51.6667 50.201 52.0833 51.0239 52.5H51.4354C51.4354 52.5 51.8469 52.5 51.8469 52.9167C52.6699 52.0833 53.0813 51.25 53.4928 50.4167C53.9043 49.5833 53.9043 48.75 53.9043 47.9167C53.9043 47.9167 53.9043 47.5 54.3158 46.6667C54.3158 46.25 54.7273 45.8333 55.1388 45.4167C54.7273 45 54.7273 45 54.3158 44.5833C53.9043 44.1667 53.4928 43.75 53.4928 43.3333C53.4928 42.9167 53.4928 42.0833 53.4928 41.6667C53.4928 41.25 53.4928 40.4167 53.0813 39.5833C52.6699 38.75 52.2584 37.9167 51.4354 37.0833C51.0239 36.6667 51.0239 36.6667 50.6124 36.25C48.9665 37.5 46.0861 39.5833 44.4402 42.5C44.4402 42.9167 44.4402 43.3333 44.8517 44.1667C44.4402 44.5833 44.4402 45 44.8517 45.4167ZM54.7273 55.4167L53.9043 55C53.9043 55.4167 53.4928 56.25 53.4928 56.6667C53.4928 57.9167 53.9043 58.75 54.7273 59.5833C55.9617 60 57.1962 60 59.2536 59.1667C59.6651 58.75 60.0766 58.75 60.488 58.3333L59.2536 57.9167L54.7273 55.4167ZM64.6029 54.1667C64.1914 55.4167 62.9569 56.6667 61.7225 57.5C61.311 57.5 60.8995 57.0833 60.8995 57.0833C58.8421 56.25 56.7847 55 55.1388 54.5833C54.7273 54.5833 54.3158 54.1667 54.3158 54.1667C55.5502 52.0833 57.6077 50.4167 59.2536 49.5833C59.6651 49.5833 60.0766 49.1667 60.0766 49.1667C60.4881 49.1667 60.8995 48.75 61.311 48.75C62.134 48.75 62.9569 48.75 63.7799 49.1667C64.1914 49.5833 64.6029 50 65.0144 50.4167C65.0144 50.8333 65.4258 51.25 65.4258 51.6667C65.0144 52.5 65.0144 53.3333 64.6029 54.1667ZM65.4258 63.3333C66.6603 63.75 67.8947 63.75 69.9522 62.9167L68.7177 62.5L65.0144 60.8333L64.1914 60.4167V60.8333C64.1914 61.6667 64.6029 62.5 65.4258 63.3333ZM74.89 57.9167C74.067 59.5833 72.8326 61.25 70.7751 62.0833C70.3637 62.0833 69.9522 61.6667 69.5407 61.6667C67.8947 60.8333 66.2488 60 64.6029 59.1667C64.1914 59.1667 63.7799 58.75 63.7799 58.75C63.7799 58.3333 64.1914 57.9167 64.1914 57.9167C65.0144 55.8333 67.0718 54.1667 68.7177 53.3333C68.7177 53.3333 69.1292 53.3333 69.1292 52.9167C69.5407 52.9167 69.9522 52.5 69.9522 52.5C71.1866 52.0833 72.4211 52.0833 73.244 52.5C73.6555 52.5 73.6555 52.9167 74.067 52.9167C74.4785 53.3333 74.89 54.1667 74.89 55C75.7129 56.25 75.3015 57.0833 74.89 57.9167Z" fill="#0E509F"/>
</svg>
