<svg width="465" height="480" viewBox="0 0 465 480" fill="none" xmlns="http://www.w3.org/2000/svg">
<g clip-path="url(#clip0)">
<path d="M320.383 60C329.282 60 338.182 55.5555 340.407 55.5555L355.981 46.6667C358.206 46.6667 360.431 44.4444 362.656 44.4444L307.034 17.7778C307.034 20 304.809 22.2222 304.809 22.2222C304.809 26.6667 304.809 28.8889 304.809 28.8889V42.2222C304.809 48.8889 307.034 53.3333 309.258 55.5555C311.483 57.7778 313.708 60 320.383 60ZM231.388 211.111V231.111C233.612 240 249.187 242.222 258.086 240L262.536 237.778L266.986 235.556C273.66 231.111 291.459 215.556 291.459 184.444V171.111C291.459 171.111 291.459 157.778 300.359 144.444C302.584 142.222 302.584 140 304.809 137.778C307.034 148.889 311.483 157.778 322.608 166.667C331.507 175.556 342.632 180 342.632 180L360.431 188.889C376.005 195.556 384.904 195.556 391.579 191.111C396.029 186.667 396.029 180 396.029 180V162.222C396.029 148.889 389.354 137.778 378.23 128.889C369.33 120 358.206 115.556 358.206 115.556L344.856 108.889L351.531 106.667L416.053 77.7778C416.053 77.7778 416.053 77.7778 418.277 77.7778C420.502 77.7778 420.502 75.5555 422.727 75.5555C429.402 77.7778 433.852 82.2222 438.301 86.6667C444.976 88.8889 449.426 93.3333 453.876 100C456.1 102.222 456.1 104.444 458.325 106.667C458.325 108.889 460.55 108.889 460.55 111.111C462.775 115.556 462.775 117.778 465 122.222C465 124.444 465 124.444 465 126.667V246.667C465 248.889 465 248.889 465 251.111C465 253.333 462.775 255.556 460.55 257.778C460.55 257.778 460.55 260 458.325 260C444.976 273.333 416.053 260 413.828 260L338.182 222.222C322.608 215.556 311.483 213.333 302.584 217.778C293.684 222.222 293.684 235.556 293.684 235.556V248.889C293.684 262.222 289.234 271.111 284.785 275.556C278.11 280 271.435 280 266.986 277.778L258.086 273.333C246.962 264.444 240.287 253.333 238.062 242.222C235.837 235.556 233.612 226.667 233.612 220V26.6667C233.612 17.7778 235.837 13.3333 240.287 8.88889C242.512 6.66667 244.737 4.44444 249.187 2.22222C251.411 0 255.861 0 262.536 0C269.211 0 273.66 2.22222 278.11 4.44444L284.785 6.66667L300.359 13.3333C300.359 15.5556 298.134 17.7778 298.134 17.7778C295.909 24.4444 295.909 26.6667 295.909 26.6667V40C295.909 46.6667 298.134 53.3333 302.584 57.7778C307.034 60 311.483 62.2222 318.158 62.2222C327.057 62.2222 338.182 57.7778 340.407 55.5555L358.206 46.6667C360.431 46.6667 360.431 44.4444 362.656 44.4444C364.88 44.4444 367.105 42.2222 369.33 42.2222L418.277 64.4444H420.502C418.278 66.6667 416.053 66.6667 416.053 66.6667H413.828L349.306 97.7778L342.632 100C329.282 93.3333 320.383 93.3333 313.708 100C309.258 104.444 309.258 111.111 309.258 111.111V122.222C307.034 124.444 304.809 126.667 304.809 128.889C289.234 153.333 289.234 168.889 289.234 171.111V184.444C289.234 213.333 273.66 226.667 266.986 233.333L262.536 235.556L258.086 237.778C251.412 240 240.287 237.778 235.837 231.111C231.388 222.222 231.388 217.778 231.388 211.111Z" fill="black"/>
<path d="M86.7703 182.222C95.6699 182.222 104.569 177.778 106.794 177.778L124.593 168.889C126.818 168.889 129.043 166.667 131.268 166.667L73.4211 140C73.4211 142.222 71.1962 144.444 71.1962 144.444C71.1962 148.889 71.1962 151.111 71.1962 151.111V164.444C71.1962 171.111 73.4211 175.556 75.6459 177.778C77.8708 182.222 82.3206 182.222 86.7703 182.222ZM0 335.556V355.556C2.22488 364.444 17.799 366.667 26.6986 364.444L31.1483 362.222L35.5981 360C42.2727 355.556 60.0718 340 60.0718 308.889V295.556C60.0718 295.556 60.0718 282.222 68.9713 268.889C71.1962 266.667 71.1962 264.444 73.4211 262.222C75.6459 273.333 80.0957 282.222 91.2201 291.111C100.12 300 111.244 304.444 111.244 304.444L131.268 311.111C146.842 317.778 155.742 317.778 162.416 313.333C166.866 308.889 166.866 302.222 166.866 302.222V288.889C166.866 275.556 160.191 264.444 149.067 255.556C140.167 246.667 129.043 242.222 129.043 242.222L115.694 235.556L122.368 233.333L184.665 200C184.665 200 184.665 200 186.89 200C189.115 200 189.115 197.778 191.34 197.778C198.014 200 202.464 204.444 206.914 208.889C213.589 213.333 218.038 220 222.488 226.667C224.713 228.889 224.713 231.111 226.938 233.333C226.938 235.556 229.163 235.556 229.163 237.778C231.388 242.222 231.388 244.444 233.612 248.889C233.612 251.111 233.612 251.111 233.612 253.333V373.333C233.612 375.556 233.612 375.556 233.612 377.778C233.612 380 231.388 382.222 229.163 384.444C229.163 384.444 229.163 386.667 226.938 386.667C213.589 400 184.665 386.667 182.44 386.667L109.019 351.111C93.445 344.444 82.3206 342.222 73.4211 346.667C64.5215 351.111 64.5215 364.444 64.5215 364.444V377.778C64.5215 391.111 60.0718 400 55.622 404.444C48.9474 408.889 42.2727 408.889 37.823 406.667L24.4737 400C13.3493 391.111 6.67464 380 4.44976 368.889C2.22488 362.222 0 353.333 0 346.667V148.889C0 140 2.22488 135.556 6.67464 131.111C8.89952 128.889 11.1244 126.667 15.5742 124.444C20.0239 122.222 24.4737 122.222 31.1483 124.444C37.823 124.444 42.2727 126.667 46.7225 128.889L53.3971 131.111L68.9713 137.778C68.9713 140 66.7464 142.222 66.7464 142.222C66.7464 148.889 66.7464 153.333 66.7464 153.333V166.667C66.7464 173.333 68.9713 180 73.4211 184.444C77.8708 186.667 82.3206 188.889 88.9952 188.889C97.8947 188.889 109.019 184.444 111.244 182.222L129.043 173.333C131.268 173.333 131.268 171.111 133.493 171.111C135.718 171.111 137.943 168.889 140.167 168.889L189.115 191.111H191.34C182.44 193.333 182.44 195.556 182.44 195.556H180.215L115.694 226.667L109.019 228.889C95.6699 222.222 86.7703 222.222 80.0957 228.889C75.6459 233.333 75.6459 240 75.6459 240V251.111C73.4211 253.333 71.1962 255.556 71.1962 257.778C57.8469 275.556 57.8469 291.111 57.8469 291.111V304.444C57.8469 333.333 42.2727 346.667 35.5981 353.333L31.1483 355.556L26.6986 357.778C20.0239 360 8.89952 357.778 4.44976 351.111C0 346.667 0 342.222 0 335.556Z" fill="#FF7E00"/>
<path d="M57.8469 111.111C55.622 111.111 55.622 113.333 53.3971 113.333C53.3971 113.333 51.1722 113.333 51.1722 115.556C44.4976 117.778 40.0478 117.778 31.1483 113.333C24.4737 111.111 15.5741 108.889 11.1244 111.111C11.1244 111.111 11.1244 111.111 8.8995 113.333C8.8995 113.333 6.67461 115.556 6.67461 117.778V124.444C6.67461 126.667 6.67461 126.667 8.8995 128.889C17.799 133.333 28.9234 131.111 46.7225 122.222L51.1722 120L113.469 91.1111C113.469 88.8889 113.469 86.6667 113.469 86.6667C111.244 75.5555 106.794 62.2222 97.8947 53.3333C95.6698 51.1111 93.445 51.1111 93.445 48.8889L64.5215 62.2222C64.5215 64.4444 64.5215 66.6667 64.5215 68.8889V71.1111V84.4444C64.5215 86.6667 64.5215 102.222 57.8469 111.111ZM120.144 82.2222C117.919 73.3333 111.244 60 102.344 51.1111C100.12 48.8889 100.12 48.8889 97.8947 46.6667L115.694 37.7778C115.694 40 115.694 40 117.919 42.2222C120.144 51.1111 129.043 62.2222 144.617 71.1111C144.617 71.1111 144.617 71.1111 146.842 71.1111C149.067 71.1111 151.292 73.3333 153.517 73.3333C144.617 77.7778 135.718 82.2222 131.268 82.2222L126.818 84.4444L120.144 88.8889C120.144 86.6667 120.144 84.4444 120.144 82.2222ZM2.22485 115.556V122.222V115.556C2.22485 102.222 15.5741 84.4444 31.1483 77.7778L57.8469 64.4444C57.8469 66.6667 57.8469 68.8889 57.8469 71.1111V84.4444C57.8469 84.4444 57.8469 97.7778 51.1722 106.667C48.9473 111.111 42.2727 113.333 35.5981 108.889C26.6985 104.444 17.799 102.222 11.1244 106.667C11.1244 106.667 8.8995 106.667 8.8995 108.889L6.67461 111.111C4.44973 111.111 2.22485 113.333 2.22485 115.556ZM146.842 68.8889C149.067 68.8889 149.067 71.1111 151.292 71.1111C157.967 73.3333 164.641 73.3333 169.091 71.1111C171.316 68.8889 171.316 66.6667 171.316 62.2222C171.316 55.5555 166.866 40 146.842 28.8889C146.842 28.8889 144.617 28.8889 144.617 26.6667C144.617 26.6667 142.392 26.6667 140.167 24.4444L120.144 35.5556C120.144 37.7778 120.144 40 120.144 40C124.593 51.1111 131.268 62.2222 146.842 68.8889ZM177.99 62.2222C177.99 53.3333 173.541 37.7778 153.517 26.6667L171.316 17.7778C173.541 28.8889 180.215 44.4444 200.239 53.3333C202.464 53.3333 211.364 57.7778 220.263 53.3333C222.488 51.1111 224.713 51.1111 226.938 48.8889C229.163 44.4444 231.388 40 233.612 33.3333V31.1111V28.8889V42.2222V46.6667V51.1111C231.388 84.4444 206.914 97.7778 204.689 97.7778C193.565 100 184.665 100 180.215 97.7778C173.541 95.5555 171.316 88.8889 171.316 82.2222C171.316 80 171.316 77.7778 169.091 75.5555C171.316 75.5555 171.316 73.3333 173.541 73.3333C175.766 71.1111 177.99 66.6667 177.99 62.2222ZM177.99 15.5556C177.99 24.4444 184.665 40 204.689 48.8889C204.689 48.8889 213.588 53.3333 220.263 48.8889C224.713 46.6667 226.938 40 229.163 31.1111V28.8889V26.6667V13.3333V11.1111C224.713 4.44444 220.263 0 211.364 0C209.139 0 206.914 0 204.689 0C202.464 0 198.014 0 195.789 2.22222L175.766 11.1111C175.766 11.1111 177.99 13.3333 177.99 15.5556ZM171.316 17.7778L153.517 26.6667C151.292 26.6667 149.067 24.4444 146.842 24.4444L169.091 13.3333V15.5556C171.316 15.5556 171.316 17.7778 171.316 17.7778ZM155.742 164.444C162.416 160 171.316 153.333 175.766 144.444C175.766 137.778 177.99 133.333 177.99 128.889C177.99 122.222 175.766 117.778 171.316 115.556C164.641 111.111 155.742 113.333 144.617 117.778C137.943 120 131.268 124.444 124.593 131.111C124.593 133.333 126.818 135.556 126.818 135.556C133.493 146.667 142.392 155.556 151.292 160C151.292 162.222 153.517 162.222 155.742 164.444ZM146.842 166.667C137.943 173.333 129.043 173.333 122.368 168.889C117.919 166.667 115.694 162.222 115.694 155.556C115.694 151.111 115.694 146.667 117.919 142.222C117.919 140 120.144 137.778 120.144 137.778C120.144 140 122.368 142.222 122.368 142.222C129.043 151.111 135.718 157.778 142.392 164.444C146.842 164.444 149.067 164.444 146.842 166.667C149.067 166.667 149.067 166.667 146.842 166.667ZM200.239 231.111C204.689 233.333 206.914 233.333 211.364 233.333C215.813 233.333 220.263 233.333 224.713 233.333C226.938 233.333 226.938 231.111 229.163 231.111C229.163 231.111 229.163 231.111 229.163 228.889C220.263 226.667 211.364 226.667 200.239 231.111ZM109.019 188.889L104.569 186.667C100.12 186.667 97.8947 186.667 93.445 186.667C91.2201 188.889 91.2201 188.889 88.9952 188.889C88.9952 188.889 82.3206 191.111 77.8708 197.778L82.3206 200L115.694 215.556L120.144 217.778C120.144 211.111 120.144 204.444 115.694 197.778C115.694 195.556 113.469 191.111 109.019 188.889ZM180.215 253.333C191.34 257.778 198.014 264.444 204.689 271.111C206.914 273.333 206.914 273.333 209.139 275.556C200.239 280 191.34 284.444 184.665 288.889L166.866 297.778C164.641 295.556 164.641 295.556 162.416 293.333C149.067 280 126.818 268.889 124.593 268.889L106.794 260C80.0957 248.889 66.7464 248.889 62.2966 253.333C60.0718 253.333 60.0718 255.556 57.8469 255.556C57.8469 257.778 55.622 257.778 55.622 260V244.444C55.622 233.333 57.8469 224.444 62.2966 215.556C66.7464 211.111 71.1962 206.667 73.421 202.222L77.8708 204.444L115.694 222.222L120.144 224.444V231.111C120.144 240 122.368 246.667 129.043 248.889C140.167 255.556 162.416 246.667 164.641 244.444L171.316 246.667L180.215 253.333ZM88.9952 302.222C80.0957 297.778 71.1962 297.778 66.7464 302.222C64.5215 304.444 64.5215 306.667 64.5215 311.111C64.5215 317.778 66.7464 326.667 75.6459 335.556C77.8708 337.778 77.8708 337.778 80.0957 340L111.244 322.222C111.244 320 109.019 320 109.019 317.778C104.569 313.333 97.8947 306.667 88.9952 302.222ZM231.388 233.333C233.612 235.556 233.612 240 233.612 240C233.612 242.222 233.612 246.667 231.388 248.889C229.163 255.556 222.488 262.222 213.589 268.889L211.364 266.667C204.689 260 195.789 253.333 184.665 248.889L177.99 246.667L171.316 244.444L182.44 240C186.89 237.778 189.115 237.778 193.565 235.556C195.789 235.556 198.014 237.778 202.464 237.778C211.364 240 222.488 242.222 229.163 240C229.163 237.778 231.388 235.556 231.388 233.333C231.388 235.556 231.388 235.556 231.388 233.333ZM124.593 273.333L106.794 264.444C75.6459 251.111 66.7464 255.556 64.5215 257.778C64.5215 257.778 64.5215 257.778 64.5215 260C64.5215 262.222 64.5215 262.222 64.5215 262.222C64.5215 266.667 64.5215 271.111 62.2966 273.333C60.0718 275.556 60.0718 275.556 57.8469 277.778C57.8469 280 55.622 284.444 53.3971 288.889C48.9473 300 42.2727 306.667 33.3732 311.111C24.4737 315.556 15.5741 322.222 8.8995 333.333C8.8995 335.556 6.67461 335.556 6.67461 337.778C6.67461 340 4.44973 342.222 4.44973 344.444V351.111C4.44973 353.333 6.67461 355.556 8.8995 357.778C17.799 364.444 33.3732 362.222 55.622 351.111L77.8708 340C75.6459 337.778 75.6459 337.778 73.421 335.556C64.5215 326.667 60.0718 315.556 60.0718 308.889C60.0718 304.444 62.2966 300 64.5215 297.778C71.1962 291.111 84.5454 293.333 93.445 297.778C104.569 302.222 111.244 308.889 115.694 315.556C115.694 317.778 117.919 317.778 117.919 320L164.641 297.778C162.416 295.556 162.416 295.556 160.191 293.333C144.617 282.222 124.593 273.333 124.593 273.333Z" fill="#D80037"/>
<path d="M420.502 348.889C424.952 351.111 429.402 351.111 436.077 353.333C442.751 353.333 449.426 353.333 453.876 351.111C460.55 346.667 465 333.333 465 326.667C465 326.667 467.225 317.778 462.775 311.111C456.1 302.222 444.976 300 433.852 304.444C420.502 311.111 404.928 324.444 404.928 340C407.153 340 409.378 342.222 409.378 342.222C413.828 344.444 418.277 346.667 420.502 348.889ZM465 337.778V353.333C462.775 368.889 453.876 382.222 442.751 391.111C440.526 393.333 438.301 395.556 436.077 395.556C431.627 400 427.177 402.222 422.727 404.444H420.502L275.885 471.111H273.66C269.211 473.333 262.536 473.333 258.086 475.556C255.861 475.556 253.636 475.556 251.411 475.556C249.187 475.556 249.187 475.556 246.962 475.556H244.737C240.287 473.333 235.837 468.889 233.612 466.667C229.163 460 229.163 451.111 229.163 451.111V437.778C229.163 433.333 229.163 426.667 231.388 422.222V420C231.388 417.778 233.612 415.556 233.612 413.333V411.111C242.512 391.111 258.086 382.222 258.086 382.222C273.66 373.333 282.56 377.778 287.01 382.222C289.234 386.667 291.459 391.111 291.459 393.333C291.459 395.556 291.459 397.778 293.684 397.778C298.134 404.444 322.608 397.778 335.957 391.111L353.756 382.222C389.354 364.444 398.254 348.889 400.478 342.222L404.928 344.444L416.053 348.889H418.277C422.727 351.111 427.177 351.111 431.627 351.111C440.526 353.333 447.201 351.111 453.876 346.667C456.1 346.667 456.1 344.444 456.1 344.444C462.775 346.667 465 342.222 465 337.778ZM358.206 204.444C364.88 202.222 373.78 197.778 382.679 195.556C380.455 195.556 378.23 193.333 378.23 193.333H376.005C369.33 191.111 360.431 188.889 355.981 193.333C353.756 195.556 353.756 197.778 353.756 202.222C353.756 204.444 353.756 206.667 353.756 206.667L358.206 204.444ZM407.153 135.556C407.153 144.444 413.828 160 433.852 168.889C433.852 168.889 447.201 175.556 453.876 166.667C458.325 162.222 458.325 155.556 458.325 146.667V131.111C458.325 131.111 458.325 131.111 458.325 128.889C456.1 126.667 453.876 124.444 451.651 122.222C442.751 117.778 429.402 117.778 411.603 126.667L407.153 128.889C407.153 131.111 407.153 133.333 407.153 135.556C407.153 133.333 407.153 135.556 407.153 135.556ZM291.459 208.889C289.234 204.444 287.01 200 280.335 193.333C278.11 191.111 278.11 191.111 275.885 188.889C278.11 188.889 278.11 186.667 280.335 186.667L322.608 166.667L329.282 162.222C333.732 162.222 340.407 162.222 342.632 160C342.632 157.778 344.856 157.778 344.856 155.556H351.531L402.703 131.111V133.333C402.703 133.333 402.703 135.556 402.703 137.778C404.928 146.667 411.603 162.222 431.627 173.333C431.627 173.333 447.201 180 458.325 168.889C462.775 164.444 465 155.556 465 146.667V160C465 171.111 462.775 180 458.325 188.889C449.426 206.667 436.077 215.556 433.852 215.556C422.727 220 416.053 222.222 409.378 217.778C404.928 215.556 402.703 208.889 402.703 202.222C402.703 200 402.703 197.778 400.478 195.556C398.254 193.333 393.804 193.333 391.579 193.333C389.354 191.111 387.129 191.111 384.904 188.889C382.679 188.889 382.679 186.667 380.455 186.667C371.555 182.222 358.206 180 351.531 186.667C349.306 188.889 347.081 193.333 347.081 197.778V200C347.081 202.222 347.081 204.444 349.306 204.444L342.632 208.889C322.608 217.778 311.483 226.667 304.809 235.556C302.584 233.333 302.584 233.333 300.359 231.111C298.134 228.889 298.134 226.667 298.134 226.667C295.909 224.444 295.909 222.222 295.909 220C293.684 217.778 293.684 213.333 291.459 208.889ZM238.062 288.889C244.737 297.778 253.636 300 264.761 293.333C269.21 291.111 273.66 288.889 278.11 284.444L275.885 282.222H273.66C269.211 280 264.761 275.556 260.311 273.333C251.411 264.444 242.512 255.556 238.062 244.444V242.222C238.062 240 235.837 237.778 235.837 235.556C233.612 240 233.612 242.222 233.612 246.667V273.333C231.388 280 233.612 284.444 238.062 288.889C235.837 288.889 235.837 288.889 238.062 288.889ZM242.512 242.222C246.962 253.333 253.636 262.222 262.536 271.111C266.986 275.556 271.435 277.778 275.885 280H278.11C278.11 280 280.335 280 280.335 282.222C284.785 277.778 287.01 273.333 289.234 268.889C291.459 264.444 291.459 260 291.459 255.556C291.459 255.556 291.459 253.333 293.684 248.889C293.684 246.667 295.909 244.444 298.134 242.222C295.909 240 295.909 240 293.684 237.778C291.459 235.556 289.234 233.333 289.234 231.111C289.234 228.889 289.234 224.444 289.234 222.222C289.234 220 289.234 215.556 287.01 211.111C284.785 206.667 282.56 202.222 278.11 197.778C275.885 195.556 275.885 195.556 273.66 193.333C264.761 200 249.187 211.111 240.287 226.667C240.287 228.889 240.287 231.111 242.512 235.556C240.287 237.778 240.287 240 242.512 242.222ZM295.909 295.556L291.459 293.333C291.459 295.556 289.234 300 289.234 302.222C289.234 308.889 291.459 313.333 295.909 317.778C302.584 320 309.258 320 320.383 315.556C322.608 313.333 324.833 313.333 327.057 311.111L320.383 308.889L295.909 295.556ZM349.306 288.889C347.081 295.556 340.407 302.222 333.732 306.667C331.507 306.667 329.282 304.444 329.282 304.444C318.158 300 307.033 293.333 298.134 291.111C295.909 291.111 293.684 288.889 293.684 288.889C300.359 277.778 311.483 268.889 320.383 264.444C322.608 264.444 324.833 262.222 324.833 262.222C327.057 262.222 329.282 260 331.507 260C335.957 260 340.407 260 344.856 262.222C347.081 264.444 349.306 266.667 351.531 268.889C351.531 271.111 353.756 273.333 353.756 275.556C351.531 280 351.531 284.444 349.306 288.889ZM353.756 337.778C360.431 340 367.105 340 378.23 335.556L371.555 333.333L351.531 324.444L347.081 322.222V324.444C347.081 328.889 349.306 333.333 353.756 337.778ZM404.928 308.889C400.478 317.778 393.804 326.667 382.679 331.111C380.455 331.111 378.23 328.889 376.005 328.889C367.105 324.444 358.206 320 349.306 315.556C347.081 315.556 344.856 313.333 344.856 313.333C344.856 311.111 347.081 308.889 347.081 308.889C351.531 297.778 362.656 288.889 371.555 284.444C371.555 284.444 373.78 284.444 373.78 282.222C376.005 282.222 378.23 280 378.23 280C384.904 277.778 391.579 277.778 396.029 280C398.254 280 398.254 282.222 400.478 282.222C402.703 284.444 404.928 288.889 404.928 293.333C409.378 300 407.153 304.444 404.928 308.889Z" fill="#094FA1"/>
</g>
<defs>
<clipPath id="clip0">
<rect width="465" height="480" fill="white"/>
</clipPath>
</defs>
</svg>
