<svg width="43" height="43" viewBox="0 0 43 43" fill="none" xmlns="http://www.w3.org/2000/svg">
<rect width="43" height="43" rx="10" fill="#EC691B"/>
<g clip-path="url(#clip0)">
<path d="M25.502 32.0002C24.8533 32.0002 24.1994 32.0002 23.5508 32.0002C23.477 31.9844 23.4031 31.958 23.324 31.9474C22.8494 31.8788 22.3643 31.8418 21.8949 31.7467C19.2793 31.2292 17.0117 30.0411 15.108 28.1823C12.9406 26.07 11.617 23.5142 11.1529 20.5201C11.0949 20.1504 11.0527 19.7755 11 19.4058C11 18.8091 11 18.2124 11 17.6157C11.0158 17.5418 11.0422 17.4678 11.0527 17.3886C11.1318 16.8447 11.174 16.2903 11.29 15.7516C11.9334 12.7945 13.373 10.2862 15.6881 8.33231C19.3215 5.26425 23.4928 4.28205 28.0859 5.523C33.2697 6.92766 36.9875 11.1733 37.8523 16.4751C37.9104 16.8183 37.9525 17.1616 38.0053 17.5048C38.0053 18.1543 38.0053 18.8039 38.0053 19.4534C37.9895 19.522 37.9631 19.5854 37.9525 19.654C37.8893 20.124 37.8523 20.594 37.7627 21.0587C37.2986 23.4508 36.265 25.5737 34.6461 27.3955C32.5684 29.7401 29.9896 31.2187 26.8994 31.7837C26.4354 31.8788 25.966 31.9316 25.502 32.0002ZM21.4203 21.1854C23.477 21.1854 25.5389 21.1854 27.6482 21.1854C27.7643 20.3088 27.9541 19.4481 27.9805 18.5768C28.0016 17.753 27.8434 16.9187 27.7801 16.0896C27.7643 15.8731 27.701 15.815 27.4848 15.815C25.5441 15.8256 23.6035 15.8203 21.6576 15.8203C21.5732 15.8203 21.4889 15.8203 21.4203 15.8203C21.0564 17.6263 21.0512 19.3953 21.4203 21.1854ZM35.0258 21.1907C35.6111 19.4534 35.5057 17.0612 34.9994 15.8308C33.4912 15.8308 31.983 15.8308 30.4379 15.8308C30.5539 17.621 30.6857 19.4006 30.459 21.1907C31.9988 21.1907 33.507 21.1907 35.0258 21.1907ZM14.1061 15.8308C13.6104 17.5471 13.5787 19.258 14.0428 20.9742C14.0902 21.1485 14.1588 21.2066 14.3434 21.2066C15.7145 21.196 17.0855 21.2013 18.4514 21.2013C18.5252 21.2013 18.6043 21.1907 18.7045 21.1854C18.5727 19.39 18.4355 17.621 18.6834 15.8361C17.1646 15.8308 15.6512 15.8308 14.1061 15.8308ZM27.0523 13.106C26.5355 11.1522 25.6232 9.42013 24.4947 7.75144C23.3926 9.44125 22.5119 11.1839 21.9529 13.106C23.6668 13.106 25.3438 13.106 27.0523 13.106ZM24.5105 29.2912C25.618 27.6067 26.4881 25.8641 27.0523 23.9472C25.3438 23.9472 23.6615 23.9472 21.9582 23.9472C22.475 25.8852 23.382 27.6173 24.5105 29.2912ZM28.0701 8.364C28.1229 8.46961 28.1703 8.57522 28.223 8.68084C28.8822 10.0327 29.4939 11.4109 29.8473 12.879C29.8947 13.0796 29.9844 13.1166 30.1689 13.1166C31.2922 13.1113 32.4154 13.1113 33.5387 13.1113C33.6125 13.1113 33.6863 13.1007 33.8076 13.0902C32.4945 10.7667 30.517 9.29867 28.0701 8.364ZM20.9563 28.7473C20.5871 27.9288 20.2021 27.1579 19.891 26.3658C19.5799 25.5737 19.332 24.7552 19.0578 23.9419C17.7975 23.9419 16.5213 23.9419 15.2082 23.9419C16.5213 26.2813 18.5094 27.7493 20.9563 28.7473ZM15.2082 13.1166C15.3348 13.1166 15.4033 13.1166 15.4719 13.1166C16.5951 13.1166 17.7184 13.1113 18.8469 13.1219C19.0631 13.1271 19.1158 13.0321 19.1738 12.8578C19.4797 11.9496 19.7803 11.0307 20.1283 10.1383C20.3656 9.52046 20.6715 8.93431 20.9615 8.29535C18.5041 9.27227 16.5846 10.8301 15.2082 13.1166ZM33.8129 23.9261C32.5209 23.9261 31.2922 23.9261 30.0635 23.9208C29.9053 23.9208 29.8842 24.0106 29.8578 24.1268C29.5941 25.2093 29.225 26.2549 28.7557 27.2687C28.5342 27.7493 28.2969 28.2245 28.0438 28.7473C30.4959 27.7493 32.484 26.2813 33.8129 23.9261Z" fill="white"/>
</g>
<defs>
<clipPath id="clip0">
<rect width="27" height="27" fill="white" transform="translate(11 5)"/>
</clipPath>
</defs>
</svg>
