<svg width="15" height="28" viewBox="0 0 15 28" fill="none" xmlns="http://www.w3.org/2000/svg">
<path d="M5.09436 3.50003C5.28304 3.12165 5.47172 2.74327 5.75474 2.36489C5.94342 2.1757 6.13209 1.98651 6.22643 1.79732C6.60379 1.41894 7.07549 1.13516 7.54719 0.851377C8.11323 0.567594 8.67926 0.378405 9.33964 0.189215C10.283 2.62339e-05 11.4151 2.62339e-05 12.4528 0.0946208C13.1132 0.0946208 13.7736 0.189215 14.434 0.28381C14.5283 0.28381 14.6227 0.378405 14.717 0.378405C14.9057 0.378405 14.9057 0.472999 14.9057 0.567594C14.9057 0.945972 14.9057 1.41894 14.9057 1.79732C14.9057 2.36489 14.9057 2.93246 14.9057 3.50003C14.9057 3.78381 14.9057 4.06759 14.9057 4.35138C14.9057 4.63516 14.9057 4.63516 14.6227 4.63516C14.5283 4.63516 14.434 4.63516 14.434 4.63516C13.8679 4.63516 13.3019 4.63516 12.6415 4.63516C12.4528 4.63516 12.2642 4.63516 11.9812 4.63516C11.6038 4.72976 11.1321 4.82435 10.8491 5.10813C10.8491 5.10813 10.7547 5.10813 10.7547 5.20273C10.1887 5.6757 9.90568 6.24327 9.90568 7.00003C9.90568 7.09462 9.90568 7.09462 9.90568 7.18921C9.90568 7.66219 9.90568 8.22976 9.90568 8.70273C9.90568 9.2703 9.90568 9.83786 9.90568 10.5C9.90568 10.6892 9.90568 10.6892 10.0944 10.6892C10.3774 10.6892 10.6604 10.6892 11.0378 10.6892C11.6038 10.6892 12.1698 10.6892 12.7359 10.6892C13.3019 10.6892 13.8679 10.6892 14.5283 10.6892H14.6227C14.717 10.6892 14.8113 10.6892 14.717 10.8784C14.6227 11.3514 14.6227 11.8243 14.5283 12.2973C14.434 12.4865 14.434 12.6757 14.434 12.8649C14.3396 13.2433 14.3396 13.6216 14.2453 14.0946C14.151 14.6622 14.0566 15.2298 13.9623 15.7973C13.8679 15.7973 13.7736 15.7973 13.6793 15.7973C13.3019 15.7973 13.0189 15.7973 12.6415 15.7973C12.0755 15.7973 11.5095 15.7973 10.8491 15.7973C10.5661 15.7973 10.1887 15.7973 9.90568 15.7973C9.81134 15.7973 9.81134 15.8919 9.81134 15.8919C9.81134 16.4595 9.81134 17.0271 9.81134 17.5C9.81134 18.0676 9.81134 18.6352 9.81134 19.2973C9.81134 19.8649 9.81134 20.4325 9.81134 21.0946C9.81134 21.6622 9.81134 22.2298 9.81134 22.7973C9.81134 23.3649 9.81134 23.9325 9.81134 24.5946C9.81134 25.1622 9.81134 25.7298 9.81134 26.3919C9.81134 26.9595 9.81134 27.5271 9.81134 28.0946C8.01889 28.0946 6.22643 28.0946 4.43398 28.0946C4.33964 28.0946 4.33964 28.0946 4.33964 27.9054C4.33964 27.3379 4.33964 26.8649 4.33964 26.2973C4.33964 25.7298 4.33964 25.1622 4.33964 24.5C4.33964 23.9325 4.33964 23.3649 4.33964 22.7027C4.33964 22.1352 4.33964 21.5676 4.33964 21C4.33964 20.4325 4.33964 19.8649 4.33964 19.2027C4.33964 18.6352 4.33964 18.0676 4.33964 17.4054C4.33964 16.9325 4.33964 16.4595 4.33964 16.0811C4.33964 15.6081 4.33964 15.6081 3.86794 15.7027C3.67926 15.7027 3.49059 15.7027 3.30191 15.7027C2.92455 15.7027 2.45285 15.7027 2.07549 15.7027C1.50945 15.7027 0.943416 15.7027 0.283038 15.7027C0.0943592 15.7027 1.95651e-05 15.7027 -0.18866 15.7027C-0.18866 15.1352 -0.18866 14.5676 -0.18866 14C-0.18866 13.8108 -0.18866 13.5271 -0.18866 13.3379C-0.18866 12.9595 -0.18866 12.5811 -0.18866 12.2027C-0.18866 11.7298 -0.18866 11.2568 -0.18866 10.7838C-0.18866 10.5946 -0.18866 10.5946 1.95651e-05 10.5946C0.0943592 10.5946 0.188699 10.5946 0.283038 10.5946C0.849076 10.5946 1.41511 10.5946 2.07549 10.5946C2.64153 10.5946 3.20757 10.5946 3.86794 10.5946C3.96228 10.5946 4.05662 10.5946 4.15096 10.5946C4.33964 10.5946 4.33964 10.5 4.33964 10.4054C4.33964 9.83786 4.33964 9.2703 4.33964 8.60813C4.33964 8.04057 4.33964 7.473 4.33964 6.90543C4.33964 6.33786 4.33964 5.7703 4.43398 5.10813C4.717 4.63516 4.81134 4.06759 5.09436 3.50003Z" fill="white"/>
</svg>
