<svg width="27" height="27" viewBox="0 0 27 27" fill="none" xmlns="http://www.w3.org/2000/svg">
<path d="M14.502 27.0002C13.8533 27.0002 13.1994 27.0002 12.5508 27.0002C12.477 26.9844 12.4031 26.958 12.324 26.9474C11.8494 26.8788 11.3643 26.8418 10.8949 26.7467C8.2793 26.2292 6.01172 25.0411 4.10801 23.1823C1.94063 21.07 0.616992 18.5142 0.15293 15.5201C0.0949219 15.1504 0.0527344 14.7755 0 14.4058C0 13.8091 0 13.2124 0 12.6157C0.0158203 12.5418 0.0421875 12.4678 0.0527344 12.3886C0.131836 11.8447 0.174023 11.2903 0.290039 10.7516C0.933398 7.79447 2.37305 5.28615 4.68809 3.33231C8.32148 0.26425 12.4928 -0.717952 17.0859 0.523003C22.2697 1.92766 25.9875 6.17331 26.8523 11.4751C26.9104 11.8183 26.9525 12.1616 27.0053 12.5048C27.0053 13.1543 27.0053 13.8039 27.0053 14.4534C26.9895 14.522 26.9631 14.5854 26.9525 14.654C26.8893 15.124 26.8523 15.594 26.7627 16.0587C26.2986 18.4508 25.265 20.5737 23.6461 22.3955C21.5684 24.7401 18.9896 26.2187 15.8994 26.7837C15.4354 26.8788 14.966 26.9316 14.502 27.0002ZM10.4203 16.1854C12.477 16.1854 14.5389 16.1854 16.6482 16.1854C16.7643 15.3088 16.9541 14.4481 16.9805 13.5768C17.0016 12.753 16.8434 11.9187 16.7801 11.0896C16.7643 10.8731 16.701 10.815 16.4848 10.815C14.5441 10.8256 12.6035 10.8203 10.6576 10.8203C10.5732 10.8203 10.4889 10.8203 10.4203 10.8203C10.0564 12.6263 10.0512 14.3953 10.4203 16.1854ZM24.0258 16.1907C24.6111 14.4534 24.5057 12.0612 23.9994 10.8308C22.4912 10.8308 20.983 10.8308 19.4379 10.8308C19.5539 12.621 19.6857 14.4006 19.459 16.1907C20.9988 16.1907 22.507 16.1907 24.0258 16.1907ZM3.10605 10.8308C2.61035 12.5471 2.57871 14.258 3.04277 15.9742C3.09023 16.1485 3.15879 16.2066 3.34336 16.2066C4.71445 16.196 6.08555 16.2013 7.45137 16.2013C7.5252 16.2013 7.6043 16.1907 7.70449 16.1854C7.57266 14.39 7.43555 12.621 7.6834 10.8361C6.16465 10.8308 4.65117 10.8308 3.10605 10.8308ZM16.0523 8.10603C15.5355 6.15218 14.6232 4.42013 13.4947 2.75144C12.3926 4.44125 11.5119 6.18387 10.9529 8.10603C12.6668 8.10603 14.3438 8.10603 16.0523 8.10603ZM13.5105 24.2912C14.618 22.6067 15.4881 20.8641 16.0523 18.9472C14.3438 18.9472 12.6615 18.9472 10.9582 18.9472C11.475 20.8852 12.382 22.6173 13.5105 24.2912ZM17.0701 3.364C17.1229 3.46961 17.1703 3.57522 17.223 3.68084C17.8822 5.03268 18.4939 6.41093 18.8473 7.87896C18.8947 8.07962 18.9844 8.11659 19.1689 8.11659C20.2922 8.11131 21.4154 8.11131 22.5387 8.11131C22.6125 8.11131 22.6863 8.10075 22.8076 8.09018C21.4945 5.76669 19.517 4.29867 17.0701 3.364ZM9.95625 23.7473C9.58711 22.9288 9.20215 22.1579 8.89102 21.3658C8.57988 20.5737 8.33203 19.7552 8.05781 18.9419C6.79746 18.9419 5.52129 18.9419 4.2082 18.9419C5.52129 21.2813 7.50938 22.7493 9.95625 23.7473ZM4.2082 8.11659C4.33477 8.11659 4.40332 8.11659 4.47188 8.11659C5.59512 8.11659 6.71836 8.11131 7.84688 8.12187C8.06309 8.12715 8.11582 8.0321 8.17383 7.85783C8.47969 6.94956 8.78027 6.03073 9.12832 5.1383C9.36563 4.52046 9.67148 3.93431 9.96152 3.29535C7.5041 4.27227 5.58457 5.83006 4.2082 8.11659ZM22.8129 18.9261C21.5209 18.9261 20.2922 18.9261 19.0635 18.9208C18.9053 18.9208 18.8842 19.0106 18.8578 19.1268C18.5941 20.2093 18.225 21.2549 17.7557 22.2687C17.5342 22.7493 17.2969 23.2245 17.0438 23.7473C19.4959 22.7493 21.484 21.2813 22.8129 18.9261Z" fill="#EC691B"/>
</svg>
